<?xml version="1.0" encoding="utf-8"?>
<!-- Generator: Adobe Illustrator 26.0.2, SVG Export Plug-In . SVG Version: 6.00 Build 0)  -->
<svg version="1.1" id="Warstwa_1" xmlns="http://www.w3.org/2000/svg" xmlns:xlink="http://www.w3.org/1999/xlink" x="0px" y="0px"
	 viewBox="0 0 18 18" style="enable-background:new 0 0 18 18;" xml:space="preserve">
<style type="text/css">
	.st0{fill:#494C6B;}
</style>
<g>
	<path class="st0" d="M18,3c-0.1,0.6-0.4,1-0.8,1.4c-2.5,2.5-5.1,5.1-7.6,7.6c-0.1,0.1-0.3,0.2-0.5,0.3c-1.2,0.3-2.3,0.6-3.5,1
		c0,0-0.1,0-0.1,0c-0.4,0.1-0.7-0.2-0.6-0.6c0.3-1.2,0.7-2.5,1-3.7c0-0.1,0.1-0.2,0.2-0.3C8.7,6,11.4,3.3,14,0.7
		c0.8-0.8,2.1-0.8,2.9,0C17,0.8,17.1,0.9,17.2,1c0.4,0.4,0.7,0.8,0.8,1.3C18,2.5,18,2.7,18,3z M15.6,4.5c-0.7-0.7-1.4-1.4-2-2
		C11.4,4.7,9.2,6.8,7.1,9c0.7,0.7,1.4,1.4,2,2C11.3,8.8,13.4,6.7,15.6,4.5z M14.2,1.7c0.7,0.7,1.4,1.4,2.1,2.1
		c0.2-0.2,0.4-0.4,0.5-0.6c0.3-0.4,0.3-1,0-1.3c-0.2-0.3-0.5-0.5-0.7-0.7c-0.4-0.3-0.9-0.3-1.3,0C14.6,1.4,14.4,1.6,14.2,1.7z
		 M6,12.1c0.8-0.2,1.5-0.4,2.2-0.6c-0.5-0.5-1.1-1.1-1.6-1.6C6.4,10.6,6.2,11.3,6,12.1z"/>
	<path class="st0" d="M2.1,18c-0.4-0.1-0.8-0.2-1.2-0.4c-0.6-0.5-1-1.1-1-1.9C0,11.8,0,8,0,4.1c0-1.3,1-2.3,2.3-2.3
		c1.3,0,2.6,0,3.8,0c0.2,0,0.4,0.1,0.5,0.3c0.1,0.2,0,0.3-0.1,0.5C6.5,2.7,6.3,2.7,6.1,2.7c-1.3,0-2.5,0-3.8,0
		c-0.5,0-0.9,0.1-1.2,0.5C1,3.5,0.9,3.7,0.9,4c0,0.1,0,0.1,0,0.2c0,3.8,0,7.6,0,11.4c0,0.5,0.1,0.9,0.5,1.2c0.3,0.2,0.6,0.3,0.9,0.3
		c3,0,6.1,0,9.1,0c1,0,2.1,0,3.1,0c0.5,0,0.9-0.1,1.2-0.5c0.2-0.3,0.3-0.6,0.3-0.9c0-1.2,0-2.4,0-3.6c0-0.1,0-0.2,0-0.3
		c0-0.2,0.2-0.4,0.4-0.4c0.2,0,0.4,0.2,0.5,0.4c0,0.1,0,0.2,0,0.2c0,1.2,0,2.5,0,3.7c0,1.2-0.7,2.1-1.8,2.3c-0.1,0-0.2,0-0.3,0
		C10.7,18,6.4,18,2.1,18z"/>
</g>
</svg>
